<?xml version="1.0" encoding="UTF-8"?>
<svg xmlns="http://www.w3.org/2000/svg" width="220mm" height="298mm" viewBox="0 0 220 298">
  <defs>
    <style>
      .cut { fill: none; stroke: #000; stroke-width: 0.5; }
      .fold { fill: none; stroke: #d33; stroke-width: 0.4; stroke-dasharray: 3,2; }
      .glue { fill: none; stroke: #36c; stroke-width: 0.4; stroke-dasharray: 2,2; }
      .pe { fill: none; stroke: #4A3F30; stroke-width: 0.35; stroke-linecap: round; }
    </style>
  </defs>
  <g transform="translate(20, 20)">

    <g id="design">

      <!-- BACKGROUND DOT PATTERNS (subtle) -->
      <g id="bg_patterns">
        <circle cx="28.0" cy="25.0" r="0.25" fill="#D6CAB0"/>
        <circle cx="28.0" cy="35.0" r="0.25" fill="#D6CAB0"/>
        <circle cx="28.0" cy="45.0" r="0.25" fill="#D6CAB0"/>
        <circle cx="28.0" cy="55.0" r="0.25" fill="#D6CAB0"/>
        <circle cx="28.0" cy="65.0" r="0.25" fill="#D6CAB0"/>
        <circle cx="28.0" cy="75.0" r="0.25" fill="#D6CAB0"/>
        <circle cx="28.0" cy="85.0" r="0.25" fill="#D6CAB0"/>
        <circle cx="28.0" cy="95.0" r="0.25" fill="#D6CAB0"/>
        <circle cx="28.0" cy="105.0" r="0.25" fill="#D6CAB0"/>
        <circle cx="38.0" cy="25.0" r="0.25" fill="#D6CAB0"/>
        <circle cx="38.0" cy="35.0" r="0.25" fill="#D6CAB0"/>
        <circle cx="38.0" cy="45.0" r="0.25" fill="#D6CAB0"/>
        <circle cx="38.0" cy="55.0" r="0.25" fill="#D6CAB0"/>
        <circle cx="38.0" cy="65.0" r="0.25" fill="#D6CAB0"/>
        <circle cx="38.0" cy="75.0" r="0.25" fill="#D6CAB0"/>
        <circle cx="38.0" cy="85.0" r="0.25" fill="#D6CAB0"/>
        <circle cx="38.0" cy="95.0" r="0.25" fill="#D6CAB0"/>
        <circle cx="38.0" cy="105.0" r="0.25" fill="#D6CAB0"/>
        <circle cx="48.0" cy="25.0" r="0.25" fill="#D6CAB0"/>
        <circle cx="48.0" cy="35.0" r="0.25" fill="#D6CAB0"/>
        <circle cx="48.0" cy="45.0" r="0.25" fill="#D6CAB0"/>
        <circle cx="48.0" cy="55.0" r="0.25" fill="#D6CAB0"/>
        <circle cx="48.0" cy="65.0" r="0.25" fill="#D6CAB0"/>
        <circle cx="48.0" cy="75.0" r="0.25" fill="#D6CAB0"/>
        <circle cx="48.0" cy="85.0" r="0.25" fill="#D6CAB0"/>
        <circle cx="48.0" cy="95.0" r="0.25" fill="#D6CAB0"/>
        <circle cx="48.0" cy="105.0" r="0.25" fill="#D6CAB0"/>
        <circle cx="58.0" cy="25.0" r="0.25" fill="#D6CAB0"/>
        <circle cx="58.0" cy="35.0" r="0.25" fill="#D6CAB0"/>
        <circle cx="58.0" cy="45.0" r="0.25" fill="#D6CAB0"/>
        <circle cx="58.0" cy="55.0" r="0.25" fill="#D6CAB0"/>
        <circle cx="58.0" cy="65.0" r="0.25" fill="#D6CAB0"/>
        <circle cx="58.0" cy="75.0" r="0.25" fill="#D6CAB0"/>
        <circle cx="58.0" cy="85.0" r="0.25" fill="#D6CAB0"/>
        <circle cx="58.0" cy="95.0" r="0.25" fill="#D6CAB0"/>
        <circle cx="58.0" cy="105.0" r="0.25" fill="#D6CAB0"/>
        <circle cx="68.0" cy="25.0" r="0.25" fill="#D6CAB0"/>
        <circle cx="68.0" cy="35.0" r="0.25" fill="#D6CAB0"/>
        <circle cx="68.0" cy="45.0" r="0.25" fill="#D6CAB0"/>
        <circle cx="68.0" cy="55.0" r="0.25" fill="#D6CAB0"/>
        <circle cx="68.0" cy="65.0" r="0.25" fill="#D6CAB0"/>
        <circle cx="68.0" cy="75.0" r="0.25" fill="#D6CAB0"/>
        <circle cx="68.0" cy="85.0" r="0.25" fill="#D6CAB0"/>
        <circle cx="68.0" cy="95.0" r="0.25" fill="#D6CAB0"/>
        <circle cx="68.0" cy="105.0" r="0.25" fill="#D6CAB0"/>
        <circle cx="78.0" cy="25.0" r="0.25" fill="#D6CAB0"/>
        <circle cx="78.0" cy="35.0" r="0.25" fill="#D6CAB0"/>
        <circle cx="78.0" cy="45.0" r="0.25" fill="#D6CAB0"/>
        <circle cx="78.0" cy="55.0" r="0.25" fill="#D6CAB0"/>
        <circle cx="78.0" cy="65.0" r="0.25" fill="#D6CAB0"/>
        <circle cx="78.0" cy="75.0" r="0.25" fill="#D6CAB0"/>
        <circle cx="78.0" cy="85.0" r="0.25" fill="#D6CAB0"/>
        <circle cx="78.0" cy="95.0" r="0.25" fill="#D6CAB0"/>
        <circle cx="78.0" cy="105.0" r="0.25" fill="#D6CAB0"/>
        <circle cx="88.0" cy="25.0" r="0.25" fill="#D6CAB0"/>
        <circle cx="88.0" cy="35.0" r="0.25" fill="#D6CAB0"/>
        <circle cx="88.0" cy="45.0" r="0.25" fill="#D6CAB0"/>
        <circle cx="88.0" cy="55.0" r="0.25" fill="#D6CAB0"/>
        <circle cx="88.0" cy="65.0" r="0.25" fill="#D6CAB0"/>
        <circle cx="88.0" cy="75.0" r="0.25" fill="#D6CAB0"/>
        <circle cx="88.0" cy="85.0" r="0.25" fill="#D6CAB0"/>
        <circle cx="88.0" cy="95.0" r="0.25" fill="#D6CAB0"/>
        <circle cx="88.0" cy="105.0" r="0.25" fill="#D6CAB0"/>
        <circle cx="98.0" cy="25.0" r="0.25" fill="#D6CAB0"/>
        <circle cx="98.0" cy="35.0" r="0.25" fill="#D6CAB0"/>
        <circle cx="98.0" cy="45.0" r="0.25" fill="#D6CAB0"/>
        <circle cx="98.0" cy="55.0" r="0.25" fill="#D6CAB0"/>
        <circle cx="98.0" cy="65.0" r="0.25" fill="#D6CAB0"/>
        <circle cx="98.0" cy="75.0" r="0.25" fill="#D6CAB0"/>
        <circle cx="98.0" cy="85.0" r="0.25" fill="#D6CAB0"/>
        <circle cx="98.0" cy="95.0" r="0.25" fill="#D6CAB0"/>
        <circle cx="98.0" cy="105.0" r="0.25" fill="#D6CAB0"/>
        <circle cx="108.0" cy="25.0" r="0.25" fill="#D6CAB0"/>
        <circle cx="108.0" cy="35.0" r="0.25" fill="#D6CAB0"/>
        <circle cx="108.0" cy="45.0" r="0.25" fill="#D6CAB0"/>
        <circle cx="108.0" cy="55.0" r="0.25" fill="#D6CAB0"/>
        <circle cx="108.0" cy="65.0" r="0.25" fill="#D6CAB0"/>
        <circle cx="108.0" cy="75.0" r="0.25" fill="#D6CAB0"/>
        <circle cx="108.0" cy="85.0" r="0.25" fill="#D6CAB0"/>
        <circle cx="108.0" cy="95.0" r="0.25" fill="#D6CAB0"/>
        <circle cx="108.0" cy="105.0" r="0.25" fill="#D6CAB0"/>
        <circle cx="118.0" cy="25.0" r="0.25" fill="#D6CAB0"/>
        <circle cx="118.0" cy="35.0" r="0.25" fill="#D6CAB0"/>
        <circle cx="118.0" cy="45.0" r="0.25" fill="#D6CAB0"/>
        <circle cx="118.0" cy="55.0" r="0.25" fill="#D6CAB0"/>
        <circle cx="118.0" cy="65.0" r="0.25" fill="#D6CAB0"/>
        <circle cx="118.0" cy="75.0" r="0.25" fill="#D6CAB0"/>
        <circle cx="118.0" cy="85.0" r="0.25" fill="#D6CAB0"/>
        <circle cx="118.0" cy="95.0" r="0.25" fill="#D6CAB0"/>
        <circle cx="118.0" cy="105.0" r="0.25" fill="#D6CAB0"/>
        <circle cx="128.0" cy="25.0" r="0.25" fill="#D6CAB0"/>
        <circle cx="128.0" cy="35.0" r="0.25" fill="#D6CAB0"/>
        <circle cx="128.0" cy="45.0" r="0.25" fill="#D6CAB0"/>
        <circle cx="128.0" cy="55.0" r="0.25" fill="#D6CAB0"/>
        <circle cx="128.0" cy="65.0" r="0.25" fill="#D6CAB0"/>
        <circle cx="128.0" cy="75.0" r="0.25" fill="#D6CAB0"/>
        <circle cx="128.0" cy="85.0" r="0.25" fill="#D6CAB0"/>
        <circle cx="128.0" cy="95.0" r="0.25" fill="#D6CAB0"/>
        <circle cx="128.0" cy="105.0" r="0.25" fill="#D6CAB0"/>
        <circle cx="138.0" cy="25.0" r="0.25" fill="#D6CAB0"/>
        <circle cx="138.0" cy="35.0" r="0.25" fill="#D6CAB0"/>
        <circle cx="138.0" cy="45.0" r="0.25" fill="#D6CAB0"/>
        <circle cx="138.0" cy="55.0" r="0.25" fill="#D6CAB0"/>
        <circle cx="138.0" cy="65.0" r="0.25" fill="#D6CAB0"/>
        <circle cx="138.0" cy="75.0" r="0.25" fill="#D6CAB0"/>
        <circle cx="138.0" cy="85.0" r="0.25" fill="#D6CAB0"/>
        <circle cx="138.0" cy="95.0" r="0.25" fill="#D6CAB0"/>
        <circle cx="138.0" cy="105.0" r="0.25" fill="#D6CAB0"/>
        <circle cx="148.0" cy="25.0" r="0.25" fill="#D6CAB0"/>
        <circle cx="148.0" cy="35.0" r="0.25" fill="#D6CAB0"/>
        <circle cx="148.0" cy="45.0" r="0.25" fill="#D6CAB0"/>
        <circle cx="148.0" cy="55.0" r="0.25" fill="#D6CAB0"/>
        <circle cx="148.0" cy="65.0" r="0.25" fill="#D6CAB0"/>
        <circle cx="148.0" cy="75.0" r="0.25" fill="#D6CAB0"/>
        <circle cx="148.0" cy="85.0" r="0.25" fill="#D6CAB0"/>
        <circle cx="148.0" cy="95.0" r="0.25" fill="#D6CAB0"/>
        <circle cx="148.0" cy="105.0" r="0.25" fill="#D6CAB0"/>
        <circle cx="30.0" cy="150.0" r="0.2" fill="#D6CAB0"/>
        <circle cx="30.0" cy="164.0" r="0.2" fill="#D6CAB0"/>
        <circle cx="30.0" cy="178.0" r="0.2" fill="#D6CAB0"/>
        <circle cx="30.0" cy="192.0" r="0.2" fill="#D6CAB0"/>
        <circle cx="30.0" cy="206.0" r="0.2" fill="#D6CAB0"/>
        <circle cx="30.0" cy="220.0" r="0.2" fill="#D6CAB0"/>
        <circle cx="30.0" cy="234.0" r="0.2" fill="#D6CAB0"/>
        <circle cx="44.0" cy="150.0" r="0.2" fill="#D6CAB0"/>
        <circle cx="44.0" cy="164.0" r="0.2" fill="#D6CAB0"/>
        <circle cx="44.0" cy="178.0" r="0.2" fill="#D6CAB0"/>
        <circle cx="44.0" cy="192.0" r="0.2" fill="#D6CAB0"/>
        <circle cx="44.0" cy="206.0" r="0.2" fill="#D6CAB0"/>
        <circle cx="44.0" cy="220.0" r="0.2" fill="#D6CAB0"/>
        <circle cx="44.0" cy="234.0" r="0.2" fill="#D6CAB0"/>
        <circle cx="58.0" cy="150.0" r="0.2" fill="#D6CAB0"/>
        <circle cx="58.0" cy="164.0" r="0.2" fill="#D6CAB0"/>
        <circle cx="58.0" cy="178.0" r="0.2" fill="#D6CAB0"/>
        <circle cx="58.0" cy="192.0" r="0.2" fill="#D6CAB0"/>
        <circle cx="58.0" cy="206.0" r="0.2" fill="#D6CAB0"/>
        <circle cx="58.0" cy="220.0" r="0.2" fill="#D6CAB0"/>
        <circle cx="58.0" cy="234.0" r="0.2" fill="#D6CAB0"/>
        <circle cx="72.0" cy="150.0" r="0.2" fill="#D6CAB0"/>
        <circle cx="72.0" cy="164.0" r="0.2" fill="#D6CAB0"/>
        <circle cx="72.0" cy="178.0" r="0.2" fill="#D6CAB0"/>
        <circle cx="72.0" cy="192.0" r="0.2" fill="#D6CAB0"/>
        <circle cx="72.0" cy="206.0" r="0.2" fill="#D6CAB0"/>
        <circle cx="72.0" cy="220.0" r="0.2" fill="#D6CAB0"/>
        <circle cx="72.0" cy="234.0" r="0.2" fill="#D6CAB0"/>
        <circle cx="86.0" cy="150.0" r="0.2" fill="#D6CAB0"/>
        <circle cx="86.0" cy="164.0" r="0.2" fill="#D6CAB0"/>
        <circle cx="86.0" cy="178.0" r="0.2" fill="#D6CAB0"/>
        <circle cx="86.0" cy="192.0" r="0.2" fill="#D6CAB0"/>
        <circle cx="86.0" cy="206.0" r="0.2" fill="#D6CAB0"/>
        <circle cx="86.0" cy="220.0" r="0.2" fill="#D6CAB0"/>
        <circle cx="86.0" cy="234.0" r="0.2" fill="#D6CAB0"/>
        <circle cx="100.0" cy="150.0" r="0.2" fill="#D6CAB0"/>
        <circle cx="100.0" cy="164.0" r="0.2" fill="#D6CAB0"/>
        <circle cx="100.0" cy="178.0" r="0.2" fill="#D6CAB0"/>
        <circle cx="100.0" cy="192.0" r="0.2" fill="#D6CAB0"/>
        <circle cx="100.0" cy="206.0" r="0.2" fill="#D6CAB0"/>
        <circle cx="100.0" cy="220.0" r="0.2" fill="#D6CAB0"/>
        <circle cx="100.0" cy="234.0" r="0.2" fill="#D6CAB0"/>
        <circle cx="114.0" cy="150.0" r="0.2" fill="#D6CAB0"/>
        <circle cx="114.0" cy="164.0" r="0.2" fill="#D6CAB0"/>
        <circle cx="114.0" cy="178.0" r="0.2" fill="#D6CAB0"/>
        <circle cx="114.0" cy="192.0" r="0.2" fill="#D6CAB0"/>
        <circle cx="114.0" cy="206.0" r="0.2" fill="#D6CAB0"/>
        <circle cx="114.0" cy="220.0" r="0.2" fill="#D6CAB0"/>
        <circle cx="114.0" cy="234.0" r="0.2" fill="#D6CAB0"/>
        <circle cx="128.0" cy="150.0" r="0.2" fill="#D6CAB0"/>
        <circle cx="128.0" cy="164.0" r="0.2" fill="#D6CAB0"/>
        <circle cx="128.0" cy="178.0" r="0.2" fill="#D6CAB0"/>
        <circle cx="128.0" cy="192.0" r="0.2" fill="#D6CAB0"/>
        <circle cx="128.0" cy="206.0" r="0.2" fill="#D6CAB0"/>
        <circle cx="128.0" cy="220.0" r="0.2" fill="#D6CAB0"/>
        <circle cx="128.0" cy="234.0" r="0.2" fill="#D6CAB0"/>
        <circle cx="142.0" cy="150.0" r="0.2" fill="#D6CAB0"/>
        <circle cx="142.0" cy="164.0" r="0.2" fill="#D6CAB0"/>
        <circle cx="142.0" cy="178.0" r="0.2" fill="#D6CAB0"/>
        <circle cx="142.0" cy="192.0" r="0.2" fill="#D6CAB0"/>
        <circle cx="142.0" cy="206.0" r="0.2" fill="#D6CAB0"/>
        <circle cx="142.0" cy="220.0" r="0.2" fill="#D6CAB0"/>
        <circle cx="142.0" cy="234.0" r="0.2" fill="#D6CAB0"/>
        <circle cx="156.0" cy="150.0" r="0.2" fill="#D6CAB0"/>
        <circle cx="156.0" cy="164.0" r="0.2" fill="#D6CAB0"/>
        <circle cx="156.0" cy="178.0" r="0.2" fill="#D6CAB0"/>
        <circle cx="156.0" cy="192.0" r="0.2" fill="#D6CAB0"/>
        <circle cx="156.0" cy="206.0" r="0.2" fill="#D6CAB0"/>
        <circle cx="156.0" cy="220.0" r="0.2" fill="#D6CAB0"/>
        <circle cx="156.0" cy="234.0" r="0.2" fill="#D6CAB0"/>
      </g>

      <!-- PAGE EDGES (fore-edge + top/bottom edges) -->
      <g id="page_edges">
        <line class="pe" x1="15.00" y1="244.20" x2="165.00" y2="244.20" />
      <line class="pe" x1="18.71" y1="244.70" x2="161.29" y2="244.70" />
      <line class="pe" x1="16.42" y1="245.21" x2="163.58" y2="245.21" />
      <line class="pe" x1="20.12" y1="245.71" x2="159.88" y2="245.71" />
      <line class="pe" x1="17.83" y1="246.22" x2="162.17" y2="246.22" />
      <line class="pe" x1="15.54" y1="248.23" x2="164.46" y2="248.23" />
      <line class="pe" x1="19.25" y1="248.74" x2="160.75" y2="248.74" />
      <line class="pe" x1="16.96" y1="249.24" x2="163.04" y2="249.24" />
      <line class="pe" x1="20.66" y1="249.74" x2="159.34" y2="249.74" />
      <line class="pe" x1="18.37" y1="250.25" x2="161.63" y2="250.25" />
      <line class="pe" x1="16.08" y1="250.75" x2="163.92" y2="250.75" />
      <line class="pe" x1="19.79" y1="251.26" x2="160.21" y2="251.26" />
      <line class="pe" x1="17.50" y1="251.76" x2="162.50" y2="251.76" />
      <line class="pe" x1="15.20" y1="253.78" x2="164.80" y2="253.78" />
      <line class="pe" x1="18.91" y1="254.28" x2="161.09" y2="254.28" />
      <line class="pe" x1="16.62" y1="254.78" x2="163.38" y2="254.78" />
      <line class="pe" x1="20.33" y1="255.29" x2="159.67" y2="255.29" />
      <line class="pe" x1="18.04" y1="255.79" x2="161.96" y2="255.79" />
        <line class="pe" x1="1.20" y1="135.00" x2="1.20" y2="243.00" />
      <line class="pe" x1="1.70" y1="137.67" x2="1.70" y2="240.33" />
      <line class="pe" x1="2.21" y1="136.02" x2="2.21" y2="241.98" />
      <line class="pe" x1="2.71" y1="138.69" x2="2.71" y2="239.31" />
      <line class="pe" x1="3.22" y1="137.04" x2="3.22" y2="240.96" />
      <line class="pe" x1="5.23" y1="135.39" x2="5.23" y2="242.61" />
      <line class="pe" x1="5.74" y1="138.06" x2="5.74" y2="239.94" />
      <line class="pe" x1="6.24" y1="136.41" x2="6.24" y2="241.59" />
      <line class="pe" x1="6.74" y1="139.08" x2="6.74" y2="238.92" />
      <line class="pe" x1="7.25" y1="137.43" x2="7.25" y2="240.57" />
      <line class="pe" x1="7.75" y1="135.78" x2="7.75" y2="242.22" />
      <line class="pe" x1="8.26" y1="138.45" x2="8.26" y2="239.55" />
      <line class="pe" x1="8.76" y1="136.80" x2="8.76" y2="241.20" />
      <line class="pe" x1="10.78" y1="135.15" x2="10.78" y2="242.85" />
      <line class="pe" x1="11.28" y1="137.82" x2="11.28" y2="240.18" />
      <line class="pe" x1="11.78" y1="136.17" x2="11.78" y2="241.83" />
      <line class="pe" x1="12.29" y1="138.84" x2="12.29" y2="239.16" />
      <line class="pe" x1="12.79" y1="137.19" x2="12.79" y2="240.81" />
        <line class="pe" x1="166.20" y1="135.00" x2="166.20" y2="243.00" />
      <line class="pe" x1="166.70" y1="137.67" x2="166.70" y2="240.33" />
      <line class="pe" x1="167.21" y1="136.02" x2="167.21" y2="241.98" />
      <line class="pe" x1="167.71" y1="138.69" x2="167.71" y2="239.31" />
      <line class="pe" x1="168.22" y1="137.04" x2="168.22" y2="240.96" />
      <line class="pe" x1="170.23" y1="135.39" x2="170.23" y2="242.61" />
      <line class="pe" x1="170.74" y1="138.06" x2="170.74" y2="239.94" />
      <line class="pe" x1="171.24" y1="136.41" x2="171.24" y2="241.59" />
      <line class="pe" x1="171.74" y1="139.08" x2="171.74" y2="238.92" />
      <line class="pe" x1="172.25" y1="137.43" x2="172.25" y2="240.57" />
      <line class="pe" x1="172.75" y1="135.78" x2="172.75" y2="242.22" />
      <line class="pe" x1="173.26" y1="138.45" x2="173.26" y2="239.55" />
      <line class="pe" x1="173.76" y1="136.80" x2="173.76" y2="241.20" />
      <line class="pe" x1="175.78" y1="135.15" x2="175.78" y2="242.85" />
      <line class="pe" x1="176.28" y1="137.82" x2="176.28" y2="240.18" />
      <line class="pe" x1="176.78" y1="136.17" x2="176.78" y2="241.83" />
      <line class="pe" x1="177.29" y1="138.84" x2="177.29" y2="239.16" />
      <line class="pe" x1="177.79" y1="137.19" x2="177.79" y2="240.81" />
      </g>

      <!-- LID (front cover) - rotated 180 so it reads right-side-up when assembled -->
      <g id="lid_design" transform="rotate(180 90.0 66.0)">

        <!-- Decorative double border frame -->
        <rect x="19" y="16" width="142" height="100" fill="none" stroke="#1A1815" stroke-width="0.45"/>
        <rect x="20.6" y="17.6" width="138.8" height="96.8" fill="none" stroke="#1A1815" stroke-width="0.2"/>

        <!-- Corner diamond marks (4 corners) -->
        <polygon points="23,18.5 24.5,20 23,21.5 21.5,20" fill="#1A1815"/>
        <polygon points="157,18.5 158.5,20 157,21.5 155.5,20" fill="#1A1815"/>
        <polygon points="23,110.5 24.5,112 23,113.5 21.5,112" fill="#1A1815"/>
        <polygon points="157,110.5 158.5,112 157,113.5 155.5,112" fill="#1A1815"/>

        <!-- Top header -->
        <text x="90.0" y="24.0" text-anchor="middle"
              font-family="Cinzel, 'Trajan Pro', Optima, 'Times New Roman', serif" font-size="2.6" letter-spacing="3.5" font-weight="600" fill="#1A1815">VOLVMEN · I</text>

        <line x1="68.00" y1="29.00" x2="86.00" y2="29.00" stroke="#1A1815" stroke-width="0.3"/><polygon points="88.8,29.0 90.0,27.8 91.2,29.0 90.0,30.2" fill="#1A1815"/><line x1="94.00" y1="29.00" x2="112.00" y2="29.00" stroke="#1A1815" stroke-width="0.3"/>

        <!-- Central quincunx symbol (chance / inquiry) -->
        <circle cx="90.00" cy="42.00" r="1.30" fill="#1A1815"/>
        <circle cx="85.67" cy="37.67" r="1.30" fill="#1A1815"/>
        <circle cx="94.33" cy="37.67" r="1.30" fill="#1A1815"/>
        <circle cx="85.67" cy="46.33" r="1.30" fill="#1A1815"/>
        <circle cx="94.33" cy="46.33" r="1.30" fill="#1A1815"/>

        <!-- Main title - Cinzel caps -->
        <text x="90.0" y="60.0" text-anchor="middle"
              font-family="Cinzel, 'Trajan Pro', Optima, 'Times New Roman', serif" font-size="14" font-weight="700" letter-spacing="3" fill="#1A1815">OPEN</text>
        <text x="90.0" y="76.0" text-anchor="middle"
              font-family="Cinzel, 'Trajan Pro', Optima, 'Times New Roman', serif" font-size="14" font-weight="700" letter-spacing="3" fill="#1A1815">QVESTIONS</text>

        <!-- Decorative line below title -->
        <line x1="60.00" y1="83.00" x2="86.00" y2="83.00" stroke="#1A1815" stroke-width="0.3"/><polygon points="88.8,83.0 90.0,81.8 91.2,83.0 90.0,84.2" fill="#1A1815"/><line x1="94.00" y1="83.00" x2="120.00" y2="83.00" stroke="#1A1815" stroke-width="0.3"/>

        <!-- Italic subtitle - EB Garamond italic -->
        <text x="90.0" y="91.0" text-anchor="middle"
              font-family="'EB Garamond', 'Cormorant Garamond', Garamond, Georgia, serif" font-size="4.5" font-style="italic" fill="#1A1815">thirty inquiries without endings</text>

        <!-- Small quincunx mark -->
        <circle cx="90.00" cy="101.00" r="0.50" fill="#6B5B45"/>
        <circle cx="88.33" cy="99.33" r="0.50" fill="#6B5B45"/>
        <circle cx="91.67" cy="99.33" r="0.50" fill="#6B5B45"/>
        <circle cx="88.33" cy="102.67" r="0.50" fill="#6B5B45"/>
        <circle cx="91.67" cy="102.67" r="0.50" fill="#6B5B45"/>

        <!-- Footer -->
        <text x="90.0" y="111.0" text-anchor="middle"
              font-family="Cinzel, 'Trajan Pro', Optima, 'Times New Roman', serif" font-size="2.2" letter-spacing="2.5" fill="#6B5B45">·  MMXXVI  ·</text>

      </g>

      <!-- SPINE (back wall) -->
      <g id="spine_design">
        <!-- triple horizontal rule top -->
        <line x1="21" y1="122.0" x2="159" y2="122.0" stroke="#1A1815" stroke-width="0.4"/>
        <line x1="21" y1="123.0" x2="159" y2="123.0" stroke="#1A1815" stroke-width="0.15"/>

        <!-- Title -->
        <text x="90.0" y="129.0" text-anchor="middle"
              font-family="Cinzel, 'Trajan Pro', Optima, 'Times New Roman', serif" font-size="4.2" font-weight="700" letter-spacing="4" fill="#1A1815">OPEN QVESTIONS</text>

        <!-- triple horizontal rule bottom -->
        <line x1="21" y1="132.0" x2="159" y2="132.0" stroke="#1A1815" stroke-width="0.15"/>
        <line x1="21" y1="133.0" x2="159" y2="133.0" stroke="#1A1815" stroke-width="0.4"/>

        <!-- Roman numeral I (volume) -->
        <text x="27" y="129.0" text-anchor="middle"
              font-family="Cinzel, 'Trajan Pro', Optima, 'Times New Roman', serif" font-size="3" font-weight="700" fill="#6B5B45">I</text>
        <!-- Roman numeral XXX (card count) -->
        <text x="153" y="129.0" text-anchor="middle"
              font-family="Cinzel, 'Trajan Pro', Optima, 'Times New Roman', serif" font-size="3" font-weight="700" fill="#6B5B45">XXX</text>

        <!-- Small diamond markers at the volume/count -->
        <polygon points="34,127.0 34.7,128.0 34,129.0 33.3,128.0" fill="#6B5B45"/>
        <polygon points="146,127.0 146.7,128.0 146,129.0 145.3,128.0" fill="#6B5B45"/>
      </g>

      <!-- BASE (back cover) - minimal but with elements -->
      <g id="base_design">

        <!-- Large central quincunx -->
        <circle cx="90.00" cy="183.00" r="1.50" fill="#1A1815"/>
        <circle cx="82.67" cy="175.67" r="1.50" fill="#1A1815"/>
        <circle cx="97.33" cy="175.67" r="1.50" fill="#1A1815"/>
        <circle cx="82.67" cy="190.33" r="1.50" fill="#1A1815"/>
        <circle cx="97.33" cy="190.33" r="1.50" fill="#1A1815"/>

        <!-- Concentric ring around quincunx -->
        <circle cx="90.0" cy="183.0" r="18" fill="none" stroke="#6B5B45" stroke-width="0.3"/>
        <circle cx="90.0" cy="183.0" r="22" fill="none" stroke="#6B5B45" stroke-width="0.15"/>

        <!-- Decorative line below ring -->
        <line x1="65.00" y1="211.00" x2="86.00" y2="211.00" stroke="#6B5B45" stroke-width="0.3"/><polygon points="88.8,211.0 90.0,209.8 91.2,211.0 90.0,212.2" fill="#6B5B45"/><line x1="94.00" y1="211.00" x2="115.00" y2="211.00" stroke="#6B5B45" stroke-width="0.3"/>

        <!-- Volume marker -->
        <text x="90.0" y="219.0" text-anchor="middle"
              font-family="Cinzel, 'Trajan Pro', Optima, 'Times New Roman', serif" font-size="3" letter-spacing="3" font-weight="600" fill="#1A1815">VOLVMEN I OF II</text>

        <!-- Italic note -->
        <text x="90.0" y="225.0" text-anchor="middle"
              font-family="'EB Garamond', 'Cormorant Garamond', Garamond, Georgia, serif" font-size="3.4" font-style="italic" fill="#6B5B45">a companion to PROVISIONAL ANSWERS</text>

        <!-- Printer's mark in bottom corner -->
        <circle cx="151" cy="231" r="4.00" fill="none" stroke="#6B5B45" stroke-width="0.35"/><circle cx="151" cy="231" r="3.12" fill="none" stroke="#6B5B45" stroke-width="0.18"/><text x="151" y="232.44" text-anchor="middle" font-family="Cinzel, 'Trajan Pro', Optima, 'Times New Roman', serif" font-size="3.36" font-weight="700" letter-spacing="0.5" fill="#6B5B45">OQ</text>

        <!-- Edition mark in opposite corner -->
        <text x="25" y="233" text-anchor="start"
              font-family="Cinzel, 'Trajan Pro', Optima, 'Times New Roman', serif" font-size="1.9" letter-spacing="1.5" fill="#6B5B45">EDITIO PRINCEPS</text>
        <text x="25" y="236" text-anchor="start"
              font-family="Cinzel, 'Trajan Pro', Optima, 'Times New Roman', serif" font-size="1.9" letter-spacing="1.5" fill="#6B5B45">MMXXVI</text>
      </g>

    </g>

    <g id="dieline">
      <path class="cut" d="M 15,0 L 76.0,0 A 14.0,8 0 0 1 104.0,0 L 165,0 L 165,124 L 180,124 L 180,254 L 165,254 L 165,258 L 15,258 L 15,254 L 0,254 L 0,124 L 15,124 Z"/>
      <line class="cut" x1="30" y1="255" x2="150" y2="255"/>
      <line class="fold" x1="15" y1="12" x2="165" y2="12"/>
      <line class="fold" x1="15" y1="120" x2="165" y2="120"/>
      <line class="fold" x1="15" y1="135" x2="165" y2="135"/>
      <line class="fold" x1="15" y1="243" x2="165" y2="243"/>
      <line class="fold" x1="15" y1="135" x2="15" y2="243"/>
      <line class="fold" x1="165" y1="135" x2="165" y2="243"/>
      <line class="fold" x1="0" y1="135" x2="15" y2="135"/>
      <line class="fold" x1="0" y1="243" x2="15" y2="243"/>
      <line class="fold" x1="165" y1="135" x2="180" y2="135"/>
      <line class="fold" x1="165" y1="243" x2="180" y2="243"/>
      <line class="glue" x1="15" y1="124" x2="15" y2="135"/>
      <line class="glue" x1="15" y1="243" x2="15" y2="254"/>
      <line class="glue" x1="165" y1="124" x2="165" y2="135"/>
      <line class="glue" x1="165" y1="243" x2="165" y2="254"/>
    </g>

  </g>
</svg>
